<mxfile host="65bd71144e">
    <diagram id="6z6XBSuisIU8fD45Gp41" name="Page-1">
        <mxGraphModel dx="1573" dy="1020" grid="1" gridSize="10" guides="1" tooltips="1" connect="1" arrows="1" fold="1" page="1" pageScale="1" pageWidth="1600" pageHeight="900" background="#003366" math="0" shadow="0">
            <root>
                <mxCell id="0"/>
                <mxCell id="1" parent="0"/>
                <mxCell id="2" value="&lt;font style=&quot;font-size: 40px;&quot;&gt;Truth Table for Logical Operators&lt;br&gt;&lt;/font&gt;" style="text;strokeColor=none;align=center;fillColor=none;html=1;verticalAlign=middle;whiteSpace=wrap;rounded=0;strokeWidth=1;fontSize=17;fontColor=#FFFFFF;" vertex="1" parent="1">
                    <mxGeometry x="460" y="60" width="680" height="110" as="geometry"/>
                </mxCell>
                <mxCell id="3" value="&lt;font style=&quot;&quot;&gt;&lt;font style=&quot;font-size: 35px;&quot;&gt;And&lt;/font&gt;&lt;br&gt;&lt;/font&gt;" style="text;strokeColor=none;align=center;fillColor=none;html=1;verticalAlign=middle;whiteSpace=wrap;rounded=0;strokeWidth=1;fontSize=17;fontColor=#FFFFFF;" vertex="1" parent="1">
                    <mxGeometry x="195" y="190" width="150" height="80" as="geometry"/>
                </mxCell>
                <mxCell id="4" value="&lt;font style=&quot;&quot;&gt;&lt;font style=&quot;font-size: 35px;&quot;&gt;Or&lt;/font&gt;&lt;br&gt;&lt;/font&gt;" style="text;strokeColor=none;align=center;fillColor=none;html=1;verticalAlign=middle;whiteSpace=wrap;rounded=0;strokeWidth=1;fontSize=17;fontColor=#FFFFFF;" vertex="1" parent="1">
                    <mxGeometry x="725" y="190" width="150" height="80" as="geometry"/>
                </mxCell>
                <mxCell id="5" value="&lt;font style=&quot;&quot;&gt;&lt;font style=&quot;font-size: 35px;&quot;&gt;Not&lt;/font&gt;&lt;br&gt;&lt;/font&gt;" style="text;strokeColor=none;align=center;fillColor=none;html=1;verticalAlign=middle;whiteSpace=wrap;rounded=0;strokeWidth=1;fontSize=17;fontColor=#FFFFFF;" vertex="1" parent="1">
                    <mxGeometry x="1310" y="190" width="150" height="80" as="geometry"/>
                </mxCell>
                <mxCell id="6" value="&lt;table&gt;&lt;tbody&gt;&lt;tr&gt;&lt;td&gt;0&lt;span style=&quot;white-space: pre;&quot;&gt;&#9;&lt;/span&gt;0&lt;span style=&quot;white-space: pre;&quot;&gt;&#9;&lt;/span&gt;0&lt;br&gt;&lt;/td&gt;&lt;td&gt;&lt;br&gt;&lt;/td&gt;&lt;td&gt;&lt;br&gt;&lt;/td&gt;&lt;/tr&gt;&lt;tr&gt;&lt;td&gt;0&lt;span style=&quot;white-space: pre;&quot;&gt;&#9;&lt;/span&gt;1&lt;span style=&quot;white-space: pre;&quot;&gt;&#9;&lt;/span&gt;0&lt;br&gt;&lt;/td&gt;&lt;td&gt;&lt;br&gt;&lt;/td&gt;&lt;td&gt;&lt;br&gt;&lt;/td&gt;&lt;/tr&gt;&lt;tr&gt;&lt;td&gt;1&lt;span style=&quot;white-space: pre;&quot;&gt;&#9;&lt;/span&gt;0&lt;span style=&quot;white-space: pre;&quot;&gt;&#9;&lt;/span&gt;0&lt;/td&gt;&lt;td&gt;&lt;br&gt;&lt;/td&gt;&lt;td&gt;&lt;br&gt;&lt;/td&gt;&lt;/tr&gt;&lt;tr&gt;&lt;td&gt;1&lt;span style=&quot;white-space: pre;&quot;&gt;&#9;&lt;/span&gt;1&lt;span style=&quot;white-space: pre;&quot;&gt;&#9;&lt;/span&gt;1&lt;/td&gt;&lt;td&gt;&lt;br&gt;&lt;/td&gt;&lt;td&gt;&lt;br&gt;&lt;/td&gt;&lt;/tr&gt;&lt;/tbody&gt;&lt;/table&gt;" style="text;strokeColor=none;align=center;fillColor=none;html=1;verticalAlign=middle;whiteSpace=wrap;rounded=0;strokeWidth=1;fontSize=35;fontColor=#FFFFFF;" vertex="1" parent="1">
                    <mxGeometry x="140" y="260" width="260" height="300" as="geometry"/>
                </mxCell>
                <mxCell id="7" value="&lt;table&gt;&lt;tbody&gt;&lt;tr&gt;&lt;td&gt;0&lt;span style=&quot;white-space: pre;&quot;&gt;&#9;&lt;/span&gt;0&lt;span style=&quot;white-space: pre;&quot;&gt;&#9;&lt;/span&gt;0&lt;br&gt;&lt;/td&gt;&lt;td&gt;&lt;br&gt;&lt;/td&gt;&lt;td&gt;&lt;br&gt;&lt;/td&gt;&lt;/tr&gt;&lt;tr&gt;&lt;td&gt;0&lt;span style=&quot;white-space: pre;&quot;&gt;&#9;&lt;/span&gt;1&lt;span style=&quot;white-space: pre;&quot;&gt;&#9;&lt;/span&gt;1&lt;br&gt;&lt;/td&gt;&lt;td&gt;&lt;br&gt;&lt;/td&gt;&lt;td&gt;&lt;br&gt;&lt;/td&gt;&lt;/tr&gt;&lt;tr&gt;&lt;td&gt;1&lt;span style=&quot;white-space: pre;&quot;&gt;&#9;&lt;/span&gt;0&lt;span style=&quot;white-space: pre;&quot;&gt;&#9;&lt;/span&gt;1&lt;/td&gt;&lt;td&gt;&lt;br&gt;&lt;/td&gt;&lt;td&gt;&lt;br&gt;&lt;/td&gt;&lt;/tr&gt;&lt;tr&gt;&lt;td&gt;1&lt;span style=&quot;white-space: pre;&quot;&gt;&#9;&lt;/span&gt;1&lt;span style=&quot;white-space: pre;&quot;&gt;&#9;&lt;/span&gt;1&lt;/td&gt;&lt;td&gt;&lt;br&gt;&lt;/td&gt;&lt;td&gt;&lt;br&gt;&lt;/td&gt;&lt;/tr&gt;&lt;/tbody&gt;&lt;/table&gt;" style="text;strokeColor=none;align=center;fillColor=none;html=1;verticalAlign=middle;whiteSpace=wrap;rounded=0;strokeWidth=1;fontSize=35;fontColor=#FFFFFF;" vertex="1" parent="1">
                    <mxGeometry x="670" y="270" width="260" height="300" as="geometry"/>
                </mxCell>
                <mxCell id="8" value="&lt;table&gt;&lt;tbody&gt;&lt;tr&gt;&lt;td&gt;&lt;br&gt;&lt;/td&gt;&lt;td&gt;0&lt;span style=&quot;white-space: pre;&quot;&gt;&#9;&lt;/span&gt;1&lt;br&gt;&lt;/td&gt;&lt;/tr&gt;&lt;tr&gt;&lt;td&gt;&lt;br&gt;&lt;/td&gt;&lt;td&gt;1&lt;span style=&quot;white-space: pre;&quot;&gt;&#9;&lt;/span&gt;0&lt;/td&gt;&lt;/tr&gt;&lt;/tbody&gt;&lt;/table&gt;" style="text;strokeColor=none;align=center;fillColor=none;html=1;verticalAlign=middle;whiteSpace=wrap;rounded=0;strokeWidth=1;fontSize=35;fontColor=#FFFFFF;" vertex="1" parent="1">
                    <mxGeometry x="1312.5" y="303" width="145" height="155" as="geometry"/>
                </mxCell>
                <mxCell id="9" value="&lt;font face=&quot;Noto Sans Bengali&quot; data-font-src=&quot;https://fonts.googleapis.com/css?family=Noto+Sans+Bengali&quot;&gt;যে কোনো একটা ইনপুট ০ হলে আউটপুট ০ হবে।&lt;/font&gt;" style="text;strokeColor=none;align=center;fillColor=none;html=1;verticalAlign=top;whiteSpace=wrap;rounded=0;strokeWidth=1;fontSize=35;fontColor=#FFFFFF;" vertex="1" parent="1">
                    <mxGeometry x="90" y="580" width="360" height="130" as="geometry"/>
                </mxCell>
                <mxCell id="10" value="&lt;font face=&quot;Noto Sans Bengali&quot; data-font-src=&quot;https://fonts.googleapis.com/css?family=Noto+Sans+Bengali&quot;&gt;যে কোনো একটা ইনপুট ১ হলে আউটপুট ১ হবে।&lt;/font&gt;" style="text;strokeColor=none;align=center;fillColor=none;html=1;verticalAlign=top;whiteSpace=wrap;rounded=0;strokeWidth=1;fontSize=35;fontColor=#FFFFFF;" vertex="1" parent="1">
                    <mxGeometry x="620" y="580" width="360" height="130" as="geometry"/>
                </mxCell>
                <mxCell id="11" value="&lt;font face=&quot;Noto Sans Bengali&quot; data-font-src=&quot;https://fonts.googleapis.com/css?family=Noto+Sans+Bengali&quot;&gt;ইনপুট, আউটপুটের বিপরীত হবে।&amp;nbsp;&lt;/font&gt;" style="text;strokeColor=none;align=center;fillColor=none;html=1;verticalAlign=top;whiteSpace=wrap;rounded=0;strokeWidth=1;fontSize=35;fontColor=#FFFFFF;" vertex="1" parent="1">
                    <mxGeometry x="1205" y="580" width="360" height="130" as="geometry"/>
                </mxCell>
            </root>
        </mxGraphModel>
    </diagram>
</mxfile>